<?xml version="1.0" encoding="UTF-8"?>
<svg id="Layer_1" data-name="Layer 1" xmlns="http://www.w3.org/2000/svg" viewBox="0 0 783.58 150.8">
  <defs>
    <style>
      .cls-1 {
        fill: #00afef;
      }

      .cls-2, .cls-3 {
        fill: #fff;
      }

      .cls-3 {
        fill-rule: evenodd;
      }
    </style>
  </defs>
  <path class="cls-2" d="M415.47,150.32c-11.52,0-21.55-2.23-30.03-6.74-8.49-4.47-15.05-10.82-19.62-19.03-4.61-8.21-6.91-17.88-6.91-29.05s2.23-20.81,6.74-28.91c4.47-8.07,10.86-14.32,19.2-18.68,8.31-4.37,18.12-6.53,29.4-6.53s20.78,2.13,28.81,6.35c8.03,4.26,14.18,10.34,18.44,18.26,4.23,7.93,6.35,17.39,6.35,28.46v10.3h-78.04c1.29,6.74,4.09,11.84,8.38,15.26,4.29,3.46,10.02,5.17,17.11,5.17,5.69,0,10.16-.91,13.37-2.72,3.18-1.78,5.48-4.68,6.88-8.62h32.12c-2.2,11.42-7.93,20.36-17.11,26.78-9.18,6.46-20.88,9.71-35.09,9.71h0ZM390.33,83.8h46.79c-1.05-5.83-3.46-10.16-7.23-13.03-3.81-2.83-8.94-4.26-15.47-4.26s-11.63,1.47-15.71,4.37c-4.09,2.9-6.88,7.23-8.38,12.92h0,0Z"/>
  <g id="_2084622153728" data-name=" 2084622153728">
    <path class="cls-3" d="M67.47,81.76c12.31,0,16.37,5.83,16.37,9.23,0-3.4,4.5-9.23,17.25-9.23h20.11c1.42,7.25.55,16.15-2.19,24.4-5.06,9.77-15.61,14.28-23.19,22.63-3.96,5.5-5.41,14-5.56,21.54h-19.63c.22-6.99.62-14.03-1.62-20.33-5.72-10.55-11.54-7.26-19.45-23.74-2.97-5.82-4.18-14.51-2.97-24.5h20.88ZM70.55,91.97c2.96.66,4.95,5.17,4.73,7.81-5.28.33-11.1.33-14.61-1.43-2.09-1.42-3.63-4.73-3.52-6.92,3.52,0,11.43-.22,13.51.44l-.1.1h0s0,0,0,0ZM97.47,91.97c-2.96.66-5.05,5.17-4.73,7.81,5.17.33,11.1.33,14.62-1.43,2.09-1.42,3.62-4.73,3.51-6.92-3.51,0-11.42-.22-13.41.44v.1h0s0,0,0,0Z"/>
    <path class="cls-3" d="M0,123.37c1.91,1.27,3.77,2.24,5.5,3-1.94,1.94-3.78,3.82-5.5,5.68v-8.69H0Z"/>
    <path class="cls-3" d="M0,101.23c13.83-10.65,19.47-19.89,38.9-19.58h.11c1,8.56-1.1,19.01,4.73,29.01-13.41,3.51-23.96,5.72-32.31,12.31-2.77,0-7.38-2.58-11.42-5.77v-15.97s0,0,0,0Z"/>
    <path class="cls-3" d="M63.95,136.37l-8.79,9.34-4.62-3.08,8.36-14.29c3.17,1.44,5.05,4.57,5.05,8.03h0s0,0,0,0Z"/>
    <path class="cls-3" d="M55.83,150.33l8.9-8.79c.03,3.21.08,6.13.18,8.79H0v-9.73c13.01-14.93,27.79-21.24,47.25-24.11v.21c3.08,3.96,4.95,4.95,7.91,7.15l-10.77,19.89,11.44,6.59h0Z"/>
    <path class="cls-3" d="M21.76,59.28v7.91c-.87,3.31-4.7,3.53-5.72-.32v-7.59c.22-4.18,5.16-3.84,5.72,0h0Z"/>
    <path class="cls-3" d="M13.19,59.28v7.91c-.88,3.26-4.61,3.41-5.72-.32v-7.59c.22-4.18,5.28-3.84,5.72,0h0Z"/>
    <path class="cls-3" d="M0,73.35c2.22.65,5.63-.38,6.15-2.92,1.35,4.43,7.47,3.75,8.42-.19,2.35,5.25,8.6,3.36,9.27-.68.77-4.4,1.76-7.25,5.39-9.9l.32,14.95c-8.9,0-22.2,11.43-28.02,16.7-.53-.25-1.04-.54-1.54-.86v-17.1h0Z"/>
    <path class="cls-3" d="M0,56.82c1.57-1.27,4.3-.32,4.62,2.46v7.91c-.76,2.39-3.1,3.34-4.62,2.06v-12.43H0Z"/>
    <path class="cls-3" d="M127.91,74.17c-.54-16.48-3.18-25.7-26.37-37.91-5.5-2.85-11.54-3.63-17.59-7.36-6.37,3.96-12.31,4.94-17.91,7.36-21.21,9.56-25.71,22.64-26.26,38.24h-4.07c-.22-4.94,0-9.99-.22-15.27-.11-2.96.88-4.17,1.64-6.04-3.62-.44-10.22.88-12.09,5.39-.1-8.35-8.01-7.48-9.11-3.96-2.53-3.52-6.6-3.85-9.23-.66-1.47-2.17-4.27-2.74-6.7-1.78V17.38c.07,2.48,2.23,4.49,4.73,4.49,2.63,0,4.83-2.09,4.83-4.61s-2.14-4.66-4.71-4.73h132.94v61.64h-9.88ZM18.57,22.42c2.64,0,4.83-2.2,4.83-4.73s-2.2-4.73-4.83-4.73-4.73,2.09-4.73,4.73,2.2,4.73,4.73,4.73ZM29.78,27.7c2.64,0,4.84-2.09,4.84-4.73s-2.2-4.73-4.84-4.73-4.73,2.19-4.73,4.73,2.1,4.73,4.73,4.73ZM36.04,39.12c2.64,0,4.73-2.19,4.73-4.73s-2.09-4.72-4.73-4.72-4.83,2.09-4.83,4.72,2.19,4.73,4.83,4.73ZM36.6,50.99c2.64,0,4.83-2.09,4.83-4.62s-2.19-4.73-4.83-4.73-4.73,2.2-4.73,4.73,2.09,4.62,4.73,4.62Z"/>
    <path class="cls-3" d="M101.21,42.86c8.79,9.55,9.01,17.36,9.01,31.64h11.2c-.87-18.56-3.07-23.62-20.11-31.64h-.11Z"/>
    <path class="cls-3" d="M67.14,42.86c-8.9,9.55-9.12,17.36-9.01,31.64h-11.21c.88-18.56,2.97-23.62,20.11-31.64h.12Z"/>
    <path class="cls-3" d="M87.58,37.25c0,17.58-.55,28.24,2.86,34.07,1.64,1.97,3.18,2.64,5.93,3.3h7.14c-.45-23.84-4.95-30.55-15.83-37.36h-.1,0,0Z"/>
    <path class="cls-3" d="M80.76,37.25c0,17.58.55,28.24-2.73,34.07-1.76,1.97-3.19,2.64-5.94,3.3h-7.14c.44-23.84,4.84-30.55,15.82-37.36h0Z"/>
    <path class="cls-3" d="M119.88,117.47l6.71,1.54c0,8.13-4.07,22.64-8.79,28.79-2.53-5.6-7.8-13.51-9.34-20.11l11.43-10.21h0Z"/>
    <path class="cls-3" d="M137.79,145.52c-.7,1.62-1.45,3.23-2.23,4.81h2.23v-4.81Z"/>
    <path class="cls-3" d="M121.13,150.33c5.63-7.66,10.22-19.48,10.95-30.12l5.7,1.51v28.61h-16.66Z"/>
    <path class="cls-3" d="M107.23,150.33c-4.16-4.48-7.46-9.71-8.66-13.07-.54-1.87,3.19-5.94,6.26-5.83,3.33,6.65,6.69,12.89,10.48,18.9h-8.08,0Z"/>
    <path class="cls-3" d="M95.03,150.33c.36-4.07,1.07-7.53,1.11-8.68,1.87,3.37,4,6.25,6.17,8.68h-7.28Z"/>
    <polygon class="cls-3" points="83.84 72.41 88.9 77.36 83.84 82.42 78.79 77.36 83.84 72.41"/>
    <path class="cls-3" d="M137.79,114.77c-3.9-1.37-8.12-2.66-13.29-4.11,4.18-8.13,4.83-18.79,3.84-29.34,3.38-.05,6.52-.1,9.45.46v33h0Z"/>
  </g>
  <path class="cls-2" d="M499.8,34.57c-4.78,0-8.83-1.67-12.22-5.06-3.39-3.39-5.06-7.44-5.06-12.22s1.67-8.83,5.06-12.22c3.39-3.39,7.44-5.06,12.22-5.06s8.83,1.67,12.22,5.06c3.39,3.39,5.06,7.44,5.06,12.22s-1.67,8.83-5.06,12.22c-3.39,3.39-7.44,5.06-12.22,5.06Z"/>
  <polygon class="cls-2" points="483.73 148.23 483.73 43.47 515.86 43.47 515.86 148.23 483.73 148.23"/>
  <path class="cls-2" d="M318.22,148.23c-8.14,0-14.46-2.06-18.92-6.22-4.5-4.12-6.74-10.44-6.74-18.93v-54.47h-17.46v-25.14h17.81V12.05h31.43v31.43h23.04v25.14h-22.7v54.47h25.14v25.14h-31.6s0,0,0,0Z"/>
  <path class="cls-2" d="M220.28,150.32c-15.71,0-28.08-3.32-37.08-9.95-9.04-6.63-13.9-15.89-14.6-27.76h30.9c.94,4.64,3.18,8.1,6.74,10.3,3.53,2.2,8.7,3.32,15.43,3.32,10.47,0,15.71-2.72,15.71-8.21,0-2.2-.77-3.98-2.34-5.34-1.61-1.33-4.19-2.34-7.79-3.04l-23.4-4.54c-21.4-4.19-32.12-14.21-32.12-30.03,0-10.23,4.12-18.44,12.4-24.55,8.27-6.11,19.66-9.15,34.22-9.15s26.01,3.14,34.39,9.43,12.92,15.12,13.62,26.54h-30.9c-1.15-4.54-3.25-7.82-6.18-9.88-3-2.03-7.33-3.04-13.02-3.04-4.64,0-8.24.63-10.72,1.92-2.51,1.29-3.77,3.21-3.77,5.76,0,1.85.77,3.42,2.27,4.71,1.5,1.29,3.77,2.2,6.81,2.79l24.09,4.71c11.17,2.2,19.38,5.83,24.62,10.82,5.24,4.99,7.86,11.77,7.86,20.25,0,10.93-4.05,19.48-12.12,25.66-8.1,6.18-19.76,9.25-35.02,9.25h0s0,0,0,0Z"/>
  <g id="_2084622164096" data-name=" 2084622164096">
    <path class="cls-1" d="M733.79,150.16c-8.67,0-16.38-1.61-22.81-5.14-2.57-1.28-4.82-2.89-6.74-4.5v7.71h-32.12V2.4h32.12v55.25h.64c2.89-4.82,7.07-8.67,12.53-11.24,5.14-2.57,11.56-4.18,18.95-4.18,9.96,0,18.63,2.25,25.7,6.74,7.07,4.5,12.53,10.92,16.06,18.95,3.85,8.03,5.46,17.67,5.46,28.59s-1.93,19.92-5.78,28.27c-3.85,8.03-9.31,14.45-16.7,19.27-7.39,4.5-16.7,6.74-27.62,6.74l.32-.64h0,0ZM727.69,122.21c8.35,0,14.45-2.25,18.31-7.07,3.85-4.82,6.1-11.24,6.1-19.27s-1.93-14.45-6.1-19.27c-3.85-4.82-9.96-7.07-18.31-7.07-7.07,0-12.85,1.93-17.02,6.1-4.18,3.85-6.1,9.64-6.1,16.7v7.71c0,7.07,1.93,12.53,6.1,16.7,4.18,3.85,9.96,6.1,17.02,6.1v-.65h0Z"/>
    <path class="cls-1" d="M626.83,148.23c-8.03,0-14.45-1.93-18.95-6.1-4.5-4.18-6.74-10.28-6.74-18.95v-54.28h-17.35v-25.05h17.67V12.68h31.16v31.16h22.81v25.05h-22.48v54.28h25.05v25.05h-31.48.32Z"/>
    <path class="cls-1" d="M553.92,35.16c-4.82,0-8.67-1.61-12.21-5.14-3.21-3.21-5.14-7.39-5.14-12.21s1.61-8.67,5.14-12.21c3.21-3.53,7.39-5.14,12.21-5.14s8.67,1.61,12.21,5.14c3.21,3.21,5.14,7.39,5.14,12.21s-1.61,8.67-5.14,12.21c-3.21,3.21-7.39,5.14-12.21,5.14Z"/>
    <polygon class="cls-1" points="537.86 148.23 537.86 43.84 569.98 43.84 569.98 148.23 537.86 148.23"/>
  </g>
</svg>